<mxfile host="app.diagrams.net" modified="2023-07-09T19:03:15.428Z" agent="Mozilla/5.0 (Macintosh; Intel Mac OS X 10_15_7) AppleWebKit/537.36 (KHTML, like Gecko) Chrome/114.0.0.0 Safari/537.36" version="21.5.2" etag="Mk1h0O9YLklUcVJGYTST" type="github">
  <diagram name="Page-1" id="n5IOSAyTA9r9tijfZNV-">
    <mxGraphModel>
      <root>
        <mxCell id="0" />
        <mxCell id="1" parent="0" />
      </root>
    </mxGraphModel>
  </diagram>
</mxfile>
